<?xml version="1.0" standalone="yes"?>
<svg xmlns="http://www.w3.org/2000/svg" width="213" height="184">
<path style="fill:#fefefe; stroke:none;" d="M0 0L0 184L213 184L213 0L0 0z"/>
<path style="fill:#a6ceea; stroke:none;" d="M123 8L123 9L126 9L123 8z"/>
<path style="fill:#66b0de; stroke:none;" d="M126 8L126 9L133 9L126 8z"/>
<path style="fill:#a6ceea; stroke:none;" d="M133.667 8.33333L134.333 8.66667L133.667 8.33333M118.667 9.33333L119.333 9.66667L118.667 9.33333z"/>
<path style="fill:#66b0de; stroke:none;" d="M120 9L121 10L120 9z"/>
<path style="fill:#3a9ed7; stroke:none;" d="M121 9L122 10L121 9z"/>
<path style="fill:#0188cf; stroke:none;" d="M92 34C76.2177 23.6056 53.898 17.8921 42.8248 39C39.3097 45.7007 42.0075 54.9084 38.8827 60.6103C36.0116 65.8494 27.5675 68.7065 23.7894 74C12.5432 89.757 17.4029 113.85 34.0008 123.79C45.0612 130.414 58.6642 129 71 129L138 129C150.099 129 163.808 130.604 175 125.008C203.241 110.887 197.15 70.5853 169 61C176.01 38.8315 161.172 15.2772 139 9.89969C121.401 5.63116 96.4141 14.7641 92 34z"/>
<path style="fill:#3a9ed7; stroke:none;" d="M137 9L138 10L137 9z"/>
<path style="fill:#66b0de; stroke:none;" d="M138 9L139 10L138 9z"/>
<path style="fill:#a6ceea; stroke:none;" d="M139 9L140 10L139 9M115 10L116 11L115 10z"/>
<path style="fill:#66b0de; stroke:none;" d="M116 10L117 11L116 10z"/>
<path style="fill:#3a9ed7; stroke:none;" d="M117 10L118 11L117 10M141 10L142 11L141 10z"/>
<path style="fill:#66b0de; stroke:none;" d="M142 10L143 11L142 10z"/>
<path style="fill:#a6ceea; stroke:none;" d="M143 10L144 11L143 10z"/>
<path style="fill:#66b0de; stroke:none;" d="M113 11L114 12L113 11z"/>
<path style="fill:#3a9ed7; stroke:none;" d="M114 11L115 12L114 11M144 11L145 12L144 11z"/>
<path style="fill:#a6ceea; stroke:none;" d="M145 11L146 12L145 11z"/>
<path style="fill:#66b0de; stroke:none;" d="M111 12L112 13L111 12z"/>
<path style="fill:#3a9ed7; stroke:none;" d="M146 12L147 13L146 12z"/>
<path style="fill:#66b0de; stroke:none;" d="M147 12L148 13L147 12M109 13L110 14L109 13z"/>
<path style="fill:#a6ceea; stroke:none;" d="M149 13L150 14L149 13M107 14L108 15L107 14z"/>
<path style="fill:#3a9ed7; stroke:none;" d="M150 14L151 15L150 14z"/>
<path style="fill:#a6ceea; stroke:none;" d="M151 14L152 15L151 14z"/>
<path style="fill:#3a9ed7; stroke:none;" d="M106 15L107 16L106 15z"/>
<path style="fill:#66b0de; stroke:none;" d="M152 15L153 16L152 15z"/>
<path style="fill:#a6ceea; stroke:none;" d="M104 16L105 17L104 16z"/>
<path style="fill:#3a9ed7; stroke:none;" d="M153 16L154 17L153 16z"/>
<path style="fill:#a6ceea; stroke:none;" d="M154 16L155 17L154 16z"/>
<path style="fill:#66b0de; stroke:none;" d="M103 17L104 18L103 17z"/>
<path style="fill:#a6ceea; stroke:none;" d="M155 17L156 18L155 17z"/>
<path style="fill:#3a9ed7; stroke:none;" d="M102 18L103 19L102 18z"/>
<path style="fill:#66b0de; stroke:none;" d="M156 18L157 19L156 18z"/>
<path style="fill:#3a9ed7; stroke:none;" d="M101 19L102 20L101 19z"/>
<path style="fill:#66b0de; stroke:none;" d="M157 19L158 20L157 19z"/>
<path style="fill:#3a9ed7; stroke:none;" d="M100 20L101 21L100 20M158 20L159 21L158 20M99 21L100 22L99 21z"/>
<path style="fill:#66b0de; stroke:none;" d="M159 21L160 22L159 21z"/>
<path style="fill:#3a9ed7; stroke:none;" d="M98 22L99 23L98 22z"/>
<path style="fill:#66b0de; stroke:none;" d="M160 22L161 23L160 22z"/>
<path style="fill:#a6ceea; stroke:none;" d="M65 23L65 24L72 24L65 23z"/>
<path style="fill:#3a9ed7; stroke:none;" d="M97 23L98 24L97 23z"/>
<path style="fill:#a6ceea; stroke:none;" d="M161 23L162 24L161 23M60 24L61 25L60 24z"/>
<path style="fill:#66b0de; stroke:none;" d="M61 24L62 25L61 24z"/>
<path style="fill:#3a9ed7; stroke:none;" d="M62.6667 24.3333L63.3333 24.6667L62.6667 24.3333M73.6667 24.3333L74.3333 24.6667L73.6667 24.3333z"/>
<path style="fill:#66b0de; stroke:none;" d="M75 24L76 25L75 24z"/>
<path style="fill:#a6ceea; stroke:none;" d="M76 24L77 25L76 24z"/>
<path style="fill:#66b0de; stroke:none;" d="M96 24L97 25L96 24z"/>
<path style="fill:#a6ceea; stroke:none;" d="M162 24L163 25L162 24M57 25L58 26L57 25z"/>
<path style="fill:#66b0de; stroke:none;" d="M58 25L59 26L58 25z"/>
<path style="fill:#3a9ed7; stroke:none;" d="M77 25L78 26L77 25z"/>
<path style="fill:#66b0de; stroke:none;" d="M78 25L79 26L78 25z"/>
<path style="fill:#a6ceea; stroke:none;" d="M79 25L80 26L79 25M95 25L96 26L95 25M55 26L56 27L55 26z"/>
<path style="fill:#3a9ed7; stroke:none;" d="M56 26L57 27L56 26M80 26L81 27L80 26z"/>
<path style="fill:#a6ceea; stroke:none;" d="M81 26L82 27L81 26z"/>
<path style="fill:#3a9ed7; stroke:none;" d="M163 26L164 27L163 26z"/>
<path style="fill:#a6ceea; stroke:none;" d="M53 27L54 28L53 27z"/>
<path style="fill:#3a9ed7; stroke:none;" d="M54 27L55 28L54 27M82 27L83 28L82 27z"/>
<path style="fill:#a6ceea; stroke:none;" d="M83 27L84 28L83 27z"/>
<path style="fill:#66b0de; stroke:none;" d="M94 27L95 28L94 27z"/>
<path style="fill:#a6ceea; stroke:none;" d="M164 27L165 28L164 27z"/>
<path style="fill:#3a9ed7; stroke:none;" d="M52 28L53 29L52 28z"/>
<path style="fill:#66b0de; stroke:none;" d="M84 28L85 29L84 28z"/>
<path style="fill:#a6ceea; stroke:none;" d="M93 28L94 29L93 28M50 29L51 30L50 29z"/>
<path style="fill:#3a9ed7; stroke:none;" d="M85 29L86 30L85 29M93 29L94 30L93 29z"/>
<path style="fill:#66b0de; stroke:none;" d="M165 29L166 30L165 29M49 30L50 31L49 30z"/>
<path style="fill:#a6ceea; stroke:none;" d="M87 30L88 31L87 30M92 30L93 31L92 30z"/>
<path style="fill:#66b0de; stroke:none;" d="M48 31L49 32L48 31z"/>
<path style="fill:#a6ceea; stroke:none;" d="M88 31L89 32L88 31z"/>
<path style="fill:#3a9ed7; stroke:none;" d="M166 31L167 32L166 31z"/>
<path style="fill:#66b0de; stroke:none;" d="M47 32L48 33L47 32z"/>
<path style="fill:#a6ceea; stroke:none;" d="M89 32L90 33L89 32M91 32L90 34L91 32z"/>
<path style="fill:#66b0de; stroke:none;" d="M46 33L47 34L46 33z"/>
<path style="fill:#3a9ed7; stroke:none;" d="M91 33L92 34L91 33z"/>
<path style="fill:#66b0de; stroke:none;" d="M167 33L168 34L167 33z"/>
<path style="fill:#a6ceea; stroke:none;" d="M45 34L46 35L45 34M44 35L45 36L44 35M168 35L169 36L168 35z"/>
<path style="fill:#3a9ed7; stroke:none;" d="M168 36L169 37L168 36z"/>
<path style="fill:#66b0de; stroke:none;" d="M43 37L44 38L43 37z"/>
<path style="fill:#a6ceea; stroke:none;" d="M42 38L43 39L42 38M169 38L170 39L169 38z"/>
<path style="fill:#3a9ed7; stroke:none;" d="M42 39L43 40L42 39M169 39L170 40L169 39z"/>
<path style="fill:#a6ceea; stroke:none;" d="M41 40L42 41L41 40z"/>
<path style="fill:#3a9ed7; stroke:none;" d="M41 41L42 42L41 41z"/>
<path style="fill:#a6ceea; stroke:none;" d="M170.333 41.6667L170.667 42.3333L170.333 41.6667z"/>
<path style="fill:#66b0de; stroke:none;" d="M40 43L41 44L40 43M170 43L171 44L170 43z"/>
<path style="fill:#3a9ed7; stroke:none;" d="M40 44L41 45L40 44M170 44L170 47L171 47L170 44z"/>
<path style="fill:#a6ceea; stroke:none;" d="M39 46L40 47L39 46z"/>
<path style="fill:#66b0de; stroke:none;" d="M39 47L40 48L39 47z"/>
<path style="fill:#3a9ed7; stroke:none;" d="M39.3333 48.6667L39.6667 49.3333L39.3333 48.6667z"/>
<path style="fill:#66b0de; stroke:none;" d="M101 52L102 53L101 52z"/>
<path style="fill:#fefefe; stroke:none;" d="M102 52L78 67L78 68L103 83L103 72L139 73L139 63L103 63L102 52z"/>
<path style="fill:#3a9ed7; stroke:none;" d="M103 52L103 61L104 61L103 52z"/>
<path style="fill:#a6ceea; stroke:none;" d="M38 53L39 54L38 53z"/>
<path style="fill:#3a9ed7; stroke:none;" d="M99 53L100 54L99 53z"/>
<path style="fill:#a6ceea; stroke:none;" d="M100 53L101 54L100 53z"/>
<path style="fill:#66b0de; stroke:none;" d="M98 54L99 55L98 54z"/>
<path style="fill:#3a9ed7; stroke:none;" d="M170.333 54.6667L170.667 55.3333L170.333 54.6667M96 55L97 56L96 55z"/>
<path style="fill:#a6ceea; stroke:none;" d="M95 56L96 57L95 56z"/>
<path style="fill:#66b0de; stroke:none;" d="M170.333 56.6667L170.667 57.3333L170.333 56.6667z"/>
<path style="fill:#3a9ed7; stroke:none;" d="M39 57L40 58L39 57z"/>
<path style="fill:#66b0de; stroke:none;" d="M93 57L94 58L93 57M39.3333 58.6667L39.6667 59.3333L39.3333 58.6667z"/>
<path style="fill:#3a9ed7; stroke:none;" d="M91 58L92 59L91 58z"/>
<path style="fill:#a6ceea; stroke:none;" d="M92 58L93 59L92 58M170 58L171 59L170 58M90 59L91 60L90 59z"/>
<path style="fill:#3a9ed7; stroke:none;" d="M88 60L89 61L88 60M169 60L170 61L169 60z"/>
<path style="fill:#66b0de; stroke:none;" d="M39 61L40 62L39 61z"/>
<path style="fill:#3a9ed7; stroke:none;" d="M86 61L87 62L86 61z"/>
<path style="fill:#a6ceea; stroke:none;" d="M87 61L88 62L87 61z"/>
<path style="fill:#3a9ed7; stroke:none;" d="M170 61L171 62L170 61z"/>
<path style="fill:#66b0de; stroke:none;" d="M171 61L172 62L171 61M37 62L38 63L37 62M85 62L86 63L85 62z"/>
<path style="fill:#a6ceea; stroke:none;" d="M103 62L103 63L139 63L139 73C146.004 56.3084 112.39 62 103 62z"/>
<path style="fill:#66b0de; stroke:none;" d="M139 62L140 63L139 62z"/>
<path style="fill:#3a9ed7; stroke:none;" d="M173 62L174 63L173 62z"/>
<path style="fill:#a6ceea; stroke:none;" d="M174 62L175 63L174 62z"/>
<path style="fill:#66b0de; stroke:none;" d="M35 63L36 64L35 63z"/>
<path style="fill:#3a9ed7; stroke:none;" d="M83 63L84 64L83 63z"/>
<path style="fill:#a6ceea; stroke:none;" d="M84 63L85 64L84 63z"/>
<path style="fill:#3a9ed7; stroke:none;" d="M175 63L176 64L175 63z"/>
<path style="fill:#a6ceea; stroke:none;" d="M176 63L177 64L176 63M33 64L34 65L33 64M82 64L83 65L82 64z"/>
<path style="fill:#66b0de; stroke:none;" d="M177 64L178 65L177 64z"/>
<path style="fill:#3a9ed7; stroke:none;" d="M32 65L33 66L32 65M80 65L81 66L80 65z"/>
<path style="fill:#a6ceea; stroke:none;" d="M179 65L180 66L179 65M30 66L31 67L30 66z"/>
<path style="fill:#3a9ed7; stroke:none;" d="M78 66L79 67L78 66z"/>
<path style="fill:#a6ceea; stroke:none;" d="M79 66L80 67L79 66z"/>
<path style="fill:#66b0de; stroke:none;" d="M180 66L181 67L180 66M29 67L30 68L29 67z"/>
<path style="fill:#3a9ed7; stroke:none;" d="M77 67L78 68L77 67M181 67L182 68L181 67z"/>
<path style="fill:#66b0de; stroke:none;" d="M28 68L29 69L28 68z"/>
<path style="fill:#3a9ed7; stroke:none;" d="M78 68L79 69L78 68z"/>
<path style="fill:#a6ceea; stroke:none;" d="M79 68L80 69L79 68z"/>
<path style="fill:#3a9ed7; stroke:none;" d="M182 68L183 69L182 68z"/>
<path style="fill:#66b0de; stroke:none;" d="M27 69L28 70L27 69M80 69L81 70L80 69z"/>
<path style="fill:#3a9ed7; stroke:none;" d="M183 69L184 70L183 69z"/>
<path style="fill:#66b0de; stroke:none;" d="M26 70L27 71L26 70z"/>
<path style="fill:#a6ceea; stroke:none;" d="M82 70L83 71L82 70z"/>
<path style="fill:#3a9ed7; stroke:none;" d="M184 70L185 71L184 70z"/>
<path style="fill:#66b0de; stroke:none;" d="M25 71L26 72L25 71z"/>
<path style="fill:#3a9ed7; stroke:none;" d="M83 71L84 72L83 71M185 71L186 72L185 71z"/>
<path style="fill:#a6ceea; stroke:none;" d="M24 72L25 73L24 72z"/>
<path style="fill:#66b0de; stroke:none;" d="M85 72L86 73L85 72z"/>
<path style="fill:#a6ceea; stroke:none;" d="M103 72L103 73L138 73L103 72z"/>
<path style="fill:#66b0de; stroke:none;" d="M186 72L187 73L186 72z"/>
<path style="fill:#3a9ed7; stroke:none;" d="M86 73L87 74L86 73z"/>
<path style="fill:#a6ceea; stroke:none;" d="M87 73L88 74L87 73M187 73L188 74L187 73z"/>
<path style="fill:#3a9ed7; stroke:none;" d="M23 74L24 75L23 74z"/>
<path style="fill:#66b0de; stroke:none;" d="M88 74L89 75L88 74z"/>
<path style="fill:#a6ceea; stroke:none;" d="M22 75L23 76L22 75M90 75L91 76L90 75z"/>
<path style="fill:#3a9ed7; stroke:none;" d="M103 75L102 84C104.641 81.6925 104.296 78.0891 103 75M188 75L189 76L188 75M91 76L92 77L91 76z"/>
<path style="fill:#a6ceea; stroke:none;" d="M189 76L190 77L189 76z"/>
<path style="fill:#66b0de; stroke:none;" d="M21 77L22 78L21 77M93 77L94 78L93 77z"/>
<path style="fill:#3a9ed7; stroke:none;" d="M189 77L190 78L189 77M94 78L95 79L94 78z"/>
<path style="fill:#a6ceea; stroke:none;" d="M95 78L96 79L95 78M190 78L191 79L190 78z"/>
<path style="fill:#66b0de; stroke:none;" d="M20 79L21 80L20 79M96 79L97 80L96 79z"/>
<path style="fill:#3a9ed7; stroke:none;" d="M190 79L191 80L190 79z"/>
<path style="fill:#a6ceea; stroke:none;" d="M98 80L99 81L98 80M191 80L192 81L191 80z"/>
<path style="fill:#66b0de; stroke:none;" d="M19 81L20 82L19 81z"/>
<path style="fill:#3a9ed7; stroke:none;" d="M99 81L100 82L99 81z"/>
<path style="fill:#a6ceea; stroke:none;" d="M100 81L101 82L100 81z"/>
<path style="fill:#3a9ed7; stroke:none;" d="M113 81L113 83L115 81L113 81M191 81L192 82L191 81M19 82L20 83L19 82z"/>
<path style="fill:#66b0de; stroke:none;" d="M101 82L102 83L101 82z"/>
<path style="fill:#fefefe; stroke:none;" d="M114 82L114 92L78 92L78 102L114 102L114 112L139 97L114 82z"/>
<path style="fill:#a6ceea; stroke:none;" d="M115 82L116 83L115 82M18 83L19 84L18 83z"/>
<path style="fill:#66b0de; stroke:none;" d="M117 83L118 84L117 83z"/>
<path style="fill:#a6ceea; stroke:none;" d="M192 83L193 84L192 83z"/>
<path style="fill:#66b0de; stroke:none;" d="M18 84L19 85L18 84z"/>
<path style="fill:#3a9ed7; stroke:none;" d="M113 84L113 90L114 90L113 84z"/>
<path style="fill:#a6ceea; stroke:none;" d="M118 84L119 85L118 84z"/>
<path style="fill:#3a9ed7; stroke:none;" d="M119 84L120 85L119 84M192 84L193 85L192 84M18 85L19 86L18 85z"/>
<path style="fill:#66b0de; stroke:none;" d="M120 85L121 86L120 85z"/>
<path style="fill:#3a9ed7; stroke:none;" d="M122 86L123 87L122 86z"/>
<path style="fill:#a6ceea; stroke:none;" d="M193 86L194 87L193 86M17.3333 87.6667L17.6667 88.3333L17.3333 87.6667M123 87L124 88L123 87z"/>
<path style="fill:#66b0de; stroke:none;" d="M193.333 87.6667L193.667 88.3333L193.333 87.6667M125 88L126 89L125 88M17.3333 89.6667L17.6667 90.3333L17.3333 89.6667z"/>
<path style="fill:#a6ceea; stroke:none;" d="M126 89L127 90L126 89z"/>
<path style="fill:#3a9ed7; stroke:none;" d="M127 89L128 90L127 89M193.333 89.6667L193.667 90.3333L193.333 89.6667z"/>
<path style="fill:#a6ceea; stroke:none;" d="M128 90L129 91L128 90z"/>
<path style="fill:#3a9ed7; stroke:none;" d="M17 91L17 97L18 97L17 91M113 91L114 92L113 91M130 91L131 92L130 91z"/>
<path style="fill:#a6ceea; stroke:none;" d="M77 92L78.0278 101.397L88 103L114 103L114 102L78 102L77 92M131 92L132 93L131 92z"/>
<path style="fill:#3a9ed7; stroke:none;" d="M132 92L133 93L132 92z"/>
<path style="fill:#66b0de; stroke:none;" d="M133 93L134 94L133 93z"/>
<path style="fill:#a6ceea; stroke:none;" d="M134 94L135 95L134 94z"/>
<path style="fill:#3a9ed7; stroke:none;" d="M135 94L136 95L135 94z"/>
<path style="fill:#a6ceea; stroke:none;" d="M136 95L137 96L136 95z"/>
<path style="fill:#66b0de; stroke:none;" d="M138 96L139 97L138 96M17.3333 97.6667L17.6667 98.3333L17.3333 97.6667z"/>
<path style="fill:#3a9ed7; stroke:none;" d="M139 97L140 98L139 97M193.333 97.6667L193.667 98.3333L193.333 97.6667z"/>
<path style="fill:#a6ceea; stroke:none;" d="M137 98L138 99L137 98M17.3333 99.6667L17.6667 100.333L17.3333 99.6667M135 99L136 100L135 99z"/>
<path style="fill:#3a9ed7; stroke:none;" d="M136 99L137 100L136 99z"/>
<path style="fill:#66b0de; stroke:none;" d="M193.333 99.6667L193.667 100.333L193.333 99.6667M134 100L135 101L134 100z"/>
<path style="fill:#a6ceea; stroke:none;" d="M132 101L133 102L132 101z"/>
<path style="fill:#3a9ed7; stroke:none;" d="M133 101L134 102L133 101z"/>
<path style="fill:#a6ceea; stroke:none;" d="M193 101L194 102L193 101z"/>
<path style="fill:#3a9ed7; stroke:none;" d="M18 102L19 103L18 102z"/>
<path style="fill:#66b0de; stroke:none;" d="M77 102L78 103L77 102M131 102L132 103L131 102M18 103L19 104L18 103z"/>
<path style="fill:#a6ceea; stroke:none;" d="M129 103L130 104L129 103z"/>
<path style="fill:#3a9ed7; stroke:none;" d="M192 103L193 104L192 103z"/>
<path style="fill:#a6ceea; stroke:none;" d="M18 104L19 105L18 104M127 104L128 105L127 104z"/>
<path style="fill:#3a9ed7; stroke:none;" d="M128 104L129 105L128 104z"/>
<path style="fill:#66b0de; stroke:none;" d="M192 104L193 105L192 104z"/>
<path style="fill:#3a9ed7; stroke:none;" d="M113 105L113 111L114 111L113 105z"/>
<path style="fill:#66b0de; stroke:none;" d="M126 105L127 106L126 105z"/>
<path style="fill:#a6ceea; stroke:none;" d="M192 105L193 106L192 105z"/>
<path style="fill:#66b0de; stroke:none;" d="M19 106L20 107L19 106z"/>
<path style="fill:#a6ceea; stroke:none;" d="M124 106L125 107L124 106z"/>
<path style="fill:#3a9ed7; stroke:none;" d="M191 106L192 107L191 106z"/>
<path style="fill:#a6ceea; stroke:none;" d="M19 107L20 108L19 107z"/>
<path style="fill:#66b0de; stroke:none;" d="M123 107L124 108L123 107z"/>
<path style="fill:#a6ceea; stroke:none;" d="M191 107L192 108L191 107z"/>
<path style="fill:#3a9ed7; stroke:none;" d="M20 108L21 109L20 108z"/>
<path style="fill:#a6ceea; stroke:none;" d="M121 108L122 109L121 108M20 109L21 110L20 109M119 109L120 110L119 109z"/>
<path style="fill:#3a9ed7; stroke:none;" d="M120 109L121 110L120 109z"/>
<path style="fill:#66b0de; stroke:none;" d="M190 109L191 110L190 109z"/>
<path style="fill:#3a9ed7; stroke:none;" d="M21 110L22 111L21 110z"/>
<path style="fill:#66b0de; stroke:none;" d="M118 110L119 111L118 110z"/>
<path style="fill:#a6ceea; stroke:none;" d="M21 111L22 112L21 111M116 111L117 112L116 111z"/>
<path style="fill:#66b0de; stroke:none;" d="M189 111L190 112L189 111M22 112L23 113L22 112z"/>
<path style="fill:#3a9ed7; stroke:none;" d="M113 112L114 113L113 112z"/>
<path style="fill:#a6ceea; stroke:none;" d="M114 112L115 113L114 112z"/>
<path style="fill:#66b0de; stroke:none;" d="M115 112L116 113L115 112z"/>
<path style="fill:#3a9ed7; stroke:none;" d="M188 112L189 113L188 112z"/>
<path style="fill:#a6ceea; stroke:none;" d="M188 113L189 114L188 113M23 114L24 115L23 114z"/>
<path style="fill:#66b0de; stroke:none;" d="M187 114L188 115L187 114M24 115L25 116L24 115z"/>
<path style="fill:#3a9ed7; stroke:none;" d="M186 115L187 116L186 115M25 116L26 117L25 116M26 117L27 118L26 117z"/>
<path style="fill:#a6ceea; stroke:none;" d="M185 117L186 118L185 117M184 118L185 119L184 118z"/>
<path style="fill:#3a9ed7; stroke:none;" d="M28 119L29 120L28 119z"/>
<path style="fill:#a6ceea; stroke:none;" d="M183 119L184 120L183 119z"/>
<path style="fill:#3a9ed7; stroke:none;" d="M29 120L30 121L29 120z"/>
<path style="fill:#a6ceea; stroke:none;" d="M182 120L183 121L182 120z"/>
<path style="fill:#66b0de; stroke:none;" d="M30 121L31 122L30 121z"/>
<path style="fill:#3a9ed7; stroke:none;" d="M180 121L181 122L180 121z"/>
<path style="fill:#a6ceea; stroke:none;" d="M31 122L32 123L31 122z"/>
<path style="fill:#66b0de; stroke:none;" d="M179 122L180 123L179 122z"/>
<path style="fill:#3a9ed7; stroke:none;" d="M33 123L34 124L33 123M177 123L178 124L177 123z"/>
<path style="fill:#a6ceea; stroke:none;" d="M178 123L179 124L178 123M34 124L35 125L34 124z"/>
<path style="fill:#66b0de; stroke:none;" d="M176 124L177 125L176 124z"/>
<path style="fill:#a6ceea; stroke:none;" d="M36 125L37 126L36 125z"/>
<path style="fill:#3a9ed7; stroke:none;" d="M37 125L38 126L37 125z"/>
<path style="fill:#66b0de; stroke:none;" d="M174 125L175 126L174 125z"/>
<path style="fill:#a6ceea; stroke:none;" d="M38 126L39 127L38 126z"/>
<path style="fill:#3a9ed7; stroke:none;" d="M39 126L40 127L39 126M171 126L172 127L171 126z"/>
<path style="fill:#a6ceea; stroke:none;" d="M172 126L173 127L172 126z"/>
<path style="fill:#66b0de; stroke:none;" d="M41 127L42 128L41 127z"/>
<path style="fill:#3a9ed7; stroke:none;" d="M42 127L43 128L42 127M168 127L169 128L168 127z"/>
<path style="fill:#66b0de; stroke:none;" d="M169 127L170 128L169 127z"/>
<path style="fill:#a6ceea; stroke:none;" d="M170 127L171 128L170 127M44 128L45 129L44 128z"/>
<path style="fill:#66b0de; stroke:none;" d="M45.6667 128.333L46.3333 128.667L45.6667 128.333z"/>
<path style="fill:#3a9ed7; stroke:none;" d="M47.6667 128.333L48.3333 128.667L47.6667 128.333M162.667 128.333L163.333 128.667L162.667 128.333z"/>
<path style="fill:#66b0de; stroke:none;" d="M164.667 128.333L165.333 128.667L164.667 128.333z"/>
<path style="fill:#a6ceea; stroke:none;" d="M166 128L167 129L166 128M93 143L94 144L93 143z"/>
<path style="fill:#66b0de; stroke:none;" d="M94 143L93 170L94 170L94 144L95 144L95 155L96 155L94 143z"/>
<path style="fill:#a6ceea; stroke:none;" d="M95 143L96 144L95 143M34 144L35 145L34 144z"/>
<path style="fill:#66b0de; stroke:none;" d="M34 146L37 145L34 146M51 144L51 145L54 145L51 144M68.6667 144.333L69.3333 144.667L68.6667 144.333z"/>
<path style="fill:#0188cf; stroke:none;" d="M94 144L94 170L95 170L95 167C112.659 178.656 114.979 144.01 95 155L94 144z"/>
<path style="fill:#66b0de; stroke:none;" d="M133 145L133 146L137 145L133 145z"/>
<path style="fill:#a6ceea; stroke:none;" d="M151 144L151 170L152 170L151 144z"/>
<path style="fill:#66b0de; stroke:none;" d="M152 144L152 145L160 145L152 144z"/>
<path style="fill:#a6ceea; stroke:none;" d="M160.667 144.333L161.333 144.667L160.667 144.333z"/>
<path style="fill:#66b0de; stroke:none;" d="M174 144L174 145C178.361 150.756 176 162.949 176 170L177 170C177 163.501 179.896 147.822 174 144z"/>
<path style="fill:#a6ceea; stroke:none;" d="M176 144L177 145L176 144z"/>
<path style="fill:#0188cf; stroke:none;" d="M35 145C35.9611 151.532 38.2092 167.637 45 170L52 147L53 147C54.3122 153.341 56.318 167.675 63 170L70 145L61 168L54 145C47.3715 147.307 45.4546 161.713 44 168L43 168C41.6944 161.691 40.2415 148.972 35 145z"/>
<path style="fill:#a6ceea; stroke:none;" d="M50 145L51 146L50 145M67 145L68 146L67 145z"/>
<path style="fill:#0188cf; stroke:none;" d="M124 170C128.698 166.56 133.871 156.974 141.352 163.603C143.686 165.671 144.234 168.328 147 170L137 145C129.749 147.341 125.641 163.076 124 170M152 145L152 170L154 170L154 159C159.397 158.996 175.197 154.594 165.682 146.742C162.272 143.928 156.113 145 152 145z"/>
<path style="fill:#66b0de; stroke:none;" d="M164 145L165 146L164 145z"/>
<path style="fill:#0188cf; stroke:none;" d="M174 145L174 170L176 170L176 145L174 145z"/>
<path style="fill:#a6ceea; stroke:none;" d="M34 146L35 147L34 146M37 146L38 147L37 146z"/>
<path style="fill:#66b0de; stroke:none;" d="M50 146L51 147L50 146z"/>
<path style="fill:#a6ceea; stroke:none;" d="M54 146L55 147L54 146z"/>
<path style="fill:#66b0de; stroke:none;" d="M67 146L68 147L67 146z"/>
<path style="fill:#3a9ed7; stroke:none;" d="M69 146L70 147L69 146z"/>
<path style="fill:#66b0de; stroke:none;" d="M135 146L136 147L135 146M137 146L138 147L137 146z"/>
<path style="fill:#a6ceea; stroke:none;" d="M154 146L154 147L160 147L154 146z"/>
<path style="fill:#66b0de; stroke:none;" d="M160 146L161 147L160 146z"/>
<path style="fill:#3a9ed7; stroke:none;" d="M161 146L162 147L161 146z"/>
<path style="fill:#a6ceea; stroke:none;" d="M166 146L167 147L166 146z"/>
<path style="fill:#66b0de; stroke:none;" d="M37 147L38 148L37 147z"/>
<path style="fill:#3a9ed7; stroke:none;" d="M52 147L53 148L52 147M54 147L55 148L54 147z"/>
<path style="fill:#a6ceea; stroke:none;" d="M69 147L70 148L69 147M132 147L133 148L132 147z"/>
<path style="fill:#3a9ed7; stroke:none;" d="M134 147L135 148L134 147z"/>
<path style="fill:#fefefe; stroke:none;" d="M135 147L130 161L140 161L135 147M154 147L154 157C167.571 156.961 167.585 147.01 154 147z"/>
<path style="fill:#a6ceea; stroke:none;" d="M163 147L164 148L163 147M167 147L168 148L167 147z"/>
<path style="fill:#66b0de; stroke:none;" d="M35 148L36 149L35 148z"/>
<path style="fill:#a6ceea; stroke:none;" d="M49 148L50 149L49 148z"/>
<path style="fill:#3a9ed7; stroke:none;" d="M132 148L133 149L132 148z"/>
<path style="fill:#a6ceea; stroke:none;" d="M134 148L135 149L134 148z"/>
<path style="fill:#3a9ed7; stroke:none;" d="M136 148L137 149L136 148z"/>
<path style="fill:#a6ceea; stroke:none;" d="M138 148L139 149L138 148M164 148L165 149L164 148M35 149L36 150L35 149M38 149L39 150L38 149z"/>
<path style="fill:#66b0de; stroke:none;" d="M49 149L50 150L49 149M51 149L52 150L51 149z"/>
<path style="fill:#3a9ed7; stroke:none;" d="M53 149L54 150L53 149z"/>
<path style="fill:#a6ceea; stroke:none;" d="M55 149L56 150L55 149M66 149L67 150L66 149M131 149L132 150L131 149M136 149L137 150L136 149z"/>
<path style="fill:#3a9ed7; stroke:none;" d="M138 149L139 150L138 149z"/>
<path style="fill:#a6ceea; stroke:none;" d="M165 149L166 150L165 149M168 149L169 150L168 149z"/>
<path style="fill:#66b0de; stroke:none;" d="M38 150L39 151L38 150z"/>
<path style="fill:#a6ceea; stroke:none;" d="M51 150L52 151L51 150M53.3333 150.667L53.6667 151.333L53.3333 150.667z"/>
<path style="fill:#3a9ed7; stroke:none;" d="M55 150L56 151L55 150M66 150L67 151L66 150z"/>
<path style="fill:#66b0de; stroke:none;" d="M68 150L69 151L68 150M131 150L132 151L131 150M133 150L134 151L133 150z"/>
<path style="fill:#a6ceea; stroke:none;" d="M139 150L140 151L139 150z"/>
<path style="fill:#66b0de; stroke:none;" d="M168 150L168 154L169 154L168 150z"/>
<path style="fill:#3a9ed7; stroke:none;" d="M36 151L37 152L36 151M38 151L39 152L38 151z"/>
<path style="fill:#a6ceea; stroke:none;" d="M48 151L49 152L48 151M68 151L69 152L68 151M78 151L78 152L83 152L78 151M100 151L100 152L105 152L100 151M133 151L134 152L133 151z"/>
<path style="fill:#66b0de; stroke:none;" d="M137 151L138 152L137 151M139 151L140 152L139 151z"/>
<path style="fill:#3a9ed7; stroke:none;" d="M166 151L167 152L166 151z"/>
<path style="fill:#a6ceea; stroke:none;" d="M36 152L37 153L36 152z"/>
<path style="fill:#66b0de; stroke:none;" d="M48 152L49 153L48 152M50 152L51 153L50 152z"/>
<path style="fill:#a6ceea; stroke:none;" d="M56 152L57 153L56 152M65 152L66 153L65 152z"/>
<path style="fill:#66b0de; stroke:none;" d="M76 152L77 153L76 152z"/>
<path style="fill:#0188cf; stroke:none;" d="M87 167C80.4617 169.36 76.3378 167.853 74 161L88 161C87.4615 151.192 74.6797 148.446 72.5733 159.015C70.9236 167.292 81.6186 174.617 87 167z"/>
<path style="fill:#3a9ed7; stroke:none;" d="M84 152L85 153L84 152z"/>
<path style="fill:#a6ceea; stroke:none;" d="M85 152L86 153L85 152M98 152L99 153L98 152z"/>
<path style="fill:#66b0de; stroke:none;" d="M106 152L107 153L106 152M130 152L131 153L130 152z"/>
<path style="fill:#3a9ed7; stroke:none;" d="M132 152L133 153L132 152z"/>
<path style="fill:#a6ceea; stroke:none;" d="M137 152L138 153L137 152M39 153L40 154L39 153M50 153L51 154L50 153z"/>
<path style="fill:#66b0de; stroke:none;" d="M54 153L55 154L54 153z"/>
<path style="fill:#3a9ed7; stroke:none;" d="M56 153L57 154L56 153z"/>
<path style="fill:#66b0de; stroke:none;" d="M65 153L66 154L65 153z"/>
<path style="fill:#3a9ed7; stroke:none;" d="M67 153L68 154L67 153M75 153L76 154L75 153M78 153L79 154L78 153z"/>
<path style="fill:#66b0de; stroke:none;" d="M79 153L80 154L79 153z"/>
<path style="fill:#a6ceea; stroke:none;" d="M80.6667 153.333L81.3333 153.667L80.6667 153.333z"/>
<path style="fill:#66b0de; stroke:none;" d="M82 153L83 154L82 153z"/>
<path style="fill:#a6ceea; stroke:none;" d="M86 153L87 154L86 153z"/>
<path style="fill:#3a9ed7; stroke:none;" d="M97 153L98 154L97 153M99 153L100 154L99 153z"/>
<path style="fill:#a6ceea; stroke:none;" d="M100 153L100 154L104 154L100 153z"/>
<path style="fill:#3a9ed7; stroke:none;" d="M107 153L108 154L107 153z"/>
<path style="fill:#a6ceea; stroke:none;" d="M132 153L133 154L132 153M140 153L141 154L140 153z"/>
<path style="fill:#66b0de; stroke:none;" d="M39 154L40 155L39 154z"/>
<path style="fill:#a6ceea; stroke:none;" d="M47 154L48 155L47 154M54 154L55 155L54 154M67 154L68 155L67 154M77 154L78 155L77 154z"/>
<path style="fill:#fefefe; stroke:none;" d="M75 159L86 159C83.7439 152.864 77.3279 152.915 75 159z"/>
<path style="fill:#3a9ed7; stroke:none;" d="M84 154L85 155L84 154z"/>
<path style="fill:#a6ceea; stroke:none;" d="M87 154L88 155L87 154z"/>
<path style="fill:#3a9ed7; stroke:none;" d="M96 154L97 155L96 154z"/>
<path style="fill:#66b0de; stroke:none;" d="M98 154L99 155L98 154z"/>
<path style="fill:#fefefe; stroke:none;" d="M99.2284 155.032C92.8372 158.801 97.5357 171.331 104.721 166.968C110.927 163.2 106.45 150.774 99.2284 155.032z"/>
<path style="fill:#66b0de; stroke:none;" d="M105 154L106 155L105 154z"/>
<path style="fill:#3a9ed7; stroke:none;" d="M108 154L109 155L108 154z"/>
<path style="fill:#a6ceea; stroke:none;" d="M129 154L130 155L129 154z"/>
<path style="fill:#66b0de; stroke:none;" d="M138 154L139 155L138 154M165 154L166 155L165 154z"/>
<path style="fill:#a6ceea; stroke:none;" d="M168 154L169 155L168 154z"/>
<path style="fill:#66b0de; stroke:none;" d="M37 155L38 156L37 155M47 155L48 156L47 155M49 155L50 156L49 155z"/>
<path style="fill:#a6ceea; stroke:none;" d="M57 155L58 156L57 155z"/>
<path style="fill:#66b0de; stroke:none;" d="M73 155L74 156L73 155z"/>
<path style="fill:#3a9ed7; stroke:none;" d="M85 155L86 156L85 155M87 155L88 156L87 155z"/>
<path style="fill:#a6ceea; stroke:none;" d="M97 155L98 156L97 155z"/>
<path style="fill:#66b0de; stroke:none;" d="M106 155L107 156L106 155z"/>
<path style="fill:#a6ceea; stroke:none;" d="M109 155L110 156L109 155z"/>
<path style="fill:#3a9ed7; stroke:none;" d="M129 155L130 156L129 155z"/>
<path style="fill:#66b0de; stroke:none;" d="M131 155L132 156L131 155z"/>
<path style="fill:#a6ceea; stroke:none;" d="M141 155L142 156L141 155M164 155L165 156L164 155z"/>
<path style="fill:#3a9ed7; stroke:none;" d="M167 155L168 156L167 155z"/>
<path style="fill:#a6ceea; stroke:none;" d="M37 156L38 157L37 156M49 156L50 157L49 156z"/>
<path style="fill:#66b0de; stroke:none;" d="M55 156L56 157L55 156M57 156L58 157L57 156z"/>
<path style="fill:#a6ceea; stroke:none;" d="M64 156L65 157L64 156z"/>
<path style="fill:#3a9ed7; stroke:none;" d="M66 156L67 157L66 156z"/>
<path style="fill:#a6ceea; stroke:none;" d="M75 156L76 157L75 156M85 156L86 157L85 156M88.3333 156.667L88.6667 157.333L88.3333 156.667z"/>
<path style="fill:#3a9ed7; stroke:none;" d="M96 156L97 157L96 156M109 156L110 157L109 156M139 156L140 157L139 156M141 156L142 157L141 156z"/>
<path style="fill:#a6ceea; stroke:none;" d="M162 156L163 157L162 156z"/>
<path style="fill:#66b0de; stroke:none;" d="M163 156L164 157L163 156z"/>
<path style="fill:#3a9ed7; stroke:none;" d="M166 156L167 157L166 156z"/>
<path style="fill:#a6ceea; stroke:none;" d="M40 157L41 158L40 157M46.3333 157.667L46.6667 158.333L46.3333 157.667M55 157L56 158L55 157z"/>
<path style="fill:#3a9ed7; stroke:none;" d="M64 157L65 158L64 157z"/>
<path style="fill:#66b0de; stroke:none;" d="M66 157L67 158L66 157z"/>
<path style="fill:#a6ceea; stroke:none;" d="M72 157L73 158L72 157M96 157L97 158L96 157M107 157L108 158L107 157z"/>
<path style="fill:#66b0de; stroke:none;" d="M128 157L129 158L128 157z"/>
<path style="fill:#3a9ed7; stroke:none;" d="M130 157L131 158L130 157z"/>
<path style="fill:#a6ceea; stroke:none;" d="M139 157L140 158L139 157z"/>
<path style="fill:#66b0de; stroke:none;" d="M154 157L154 158L161 158L154 157z"/>
<path style="fill:#3a9ed7; stroke:none;" d="M165 157L166 158L165 157M38 158L39 159L38 158M40 158L41 159L40 158M48 158L49 159L48 158z"/>
<path style="fill:#a6ceea; stroke:none;" d="M58 158L59 159L58 158M66 158L67 159L66 158z"/>
<path style="fill:#3a9ed7; stroke:none;" d="M72 158L73 159L72 158M74.3333 158.667L74.6667 159.333L74.3333 158.667M86.3333 158.667L86.6667 159.333L86.3333 158.667z"/>
<path style="fill:#66b0de; stroke:none;" d="M88 158L88 161L89 161L88 158z"/>
<path style="fill:#a6ceea; stroke:none;" d="M110 158L110 163L111 163L110 158M130 158L131 159L130 158z"/>
<path style="fill:#66b0de; stroke:none;" d="M142 158L143 159L142 158z"/>
<path style="fill:#3a9ed7; stroke:none;" d="M163 158L164 159L163 158z"/>
<path style="fill:#a6ceea; stroke:none;" d="M164 158L165 159L164 158M38 159L39 160L38 159z"/>
<path style="fill:#3a9ed7; stroke:none;" d="M46 159L47 160L46 159z"/>
<path style="fill:#a6ceea; stroke:none;" d="M48 159L49 160L48 159z"/>
<path style="fill:#66b0de; stroke:none;" d="M56 159L57 160L56 159M58 159L59 160L58 159z"/>
<path style="fill:#a6ceea; stroke:none;" d="M63 159L64 160L63 159M75 159L75 160L86 160L75 159z"/>
<path style="fill:#66b0de; stroke:none;" d="M95 159L95 163L96 163L95 159z"/>
<path style="fill:#a6ceea; stroke:none;" d="M127 159L128 160L127 159z"/>
<path style="fill:#66b0de; stroke:none;" d="M140 159L141 160L140 159z"/>
<path style="fill:#a6ceea; stroke:none;" d="M154 159L154 160L161 160L154 159M41 160L42 161L41 160M56 160L57 161L56 160z"/>
<path style="fill:#66b0de; stroke:none;" d="M63 160L64 161L63 160M65 160L66 161L65 160M129 160L130 161L129 160z"/>
<path style="fill:#a6ceea; stroke:none;" d="M140 160L141 161L140 160M143 160L144 161L143 160z"/>
<path style="fill:#66b0de; stroke:none;" d="M41 161L42 162L41 161z"/>
<path style="fill:#a6ceea; stroke:none;" d="M45 161L46 162L45 161z"/>
<path style="fill:#3a9ed7; stroke:none;" d="M47 161L48 162L47 161z"/>
<path style="fill:#a6ceea; stroke:none;" d="M59 161L60 162L59 161z"/>
<path style="fill:#3a9ed7; stroke:none;" d="M63 161L64 162L63 161z"/>
<path style="fill:#a6ceea; stroke:none;" d="M65 161L66 162L65 161z"/>
<path style="fill:#66b0de; stroke:none;" d="M74 161L75 162L74 161z"/>
<path style="fill:#a6ceea; stroke:none;" d="M75 161L75 162L89 162L75 161M126 161L127 162L126 161z"/>
<path style="fill:#3a9ed7; stroke:none;" d="M143 161L144 162L143 161z"/>
<path style="fill:#66b0de; stroke:none;" d="M39 162L40 163L39 162z"/>
<path style="fill:#3a9ed7; stroke:none;" d="M45 162L46 163L45 162z"/>
<path style="fill:#a6ceea; stroke:none;" d="M47 162L48 163L47 162z"/>
<path style="fill:#3a9ed7; stroke:none;" d="M57 162L58 163L57 162z"/>
<path style="fill:#66b0de; stroke:none;" d="M59 162L60 163L59 162z"/>
<path style="fill:#a6ceea; stroke:none;" d="M74 162L75 163L74 162z"/>
<path style="fill:#66b0de; stroke:none;" d="M126 162L127 163L126 162M129 162L129 163L141 163L129 162z"/>
<path style="fill:#3a9ed7; stroke:none;" d="M141 162L142 163L141 162z"/>
<path style="fill:#a6ceea; stroke:none;" d="M144 162L145 163L144 162M39 163L40 164L39 163M57 163L58 164L57 163M62 163L63 164L62 163z"/>
<path style="fill:#3a9ed7; stroke:none;" d="M64 163L65 164L64 163M72 163L73 164L72 163z"/>
<path style="fill:#66b0de; stroke:none;" d="M74 163L75 164L74 163z"/>
<path style="fill:#3a9ed7; stroke:none;" d="M95 163L96 164L95 163z"/>
<path style="fill:#a6ceea; stroke:none;" d="M107 163L108 164L107 163M128 163L129 164L128 163z"/>
<path style="fill:#66b0de; stroke:none;" d="M144 163L145 164L144 163z"/>
<path style="fill:#a6ceea; stroke:none;" d="M42 164L43 165L42 164M44 164L45 165L44 164z"/>
<path style="fill:#3a9ed7; stroke:none;" d="M46 164L47 165L46 164z"/>
<path style="fill:#a6ceea; stroke:none;" d="M60.3333 164.667L60.6667 165.333L60.3333 164.667z"/>
<path style="fill:#66b0de; stroke:none;" d="M62 164L63 165L62 164z"/>
<path style="fill:#a6ceea; stroke:none;" d="M64.3333 164.667L64.6667 165.333L64.3333 164.667z"/>
<path style="fill:#66b0de; stroke:none;" d="M72 164L73 165L72 164M107 164L108 165L107 164M125 164L126 165L125 164M142 164L143 165L142 164z"/>
<path style="fill:#3a9ed7; stroke:none;" d="M40 165L41 166L40 165z"/>
<path style="fill:#66b0de; stroke:none;" d="M42 165L43 166L42 165M44 165L45 166L44 165z"/>
<path style="fill:#a6ceea; stroke:none;" d="M46 165L47 166L46 165z"/>
<path style="fill:#3a9ed7; stroke:none;" d="M58 165L59 166L58 165z"/>
<path style="fill:#a6ceea; stroke:none;" d="M75 165L76 166L75 165z"/>
<path style="fill:#66b0de; stroke:none;" d="M96 165L97 166L96 165M109 165L110 166L109 165M127 165L128 166L127 165z"/>
<path style="fill:#a6ceea; stroke:none;" d="M142 165L143 166L142 165M145 165L146 166L145 165M40 166L41 167L40 166M58 166L59 167L58 166z"/>
<path style="fill:#3a9ed7; stroke:none;" d="M60 166L61 167L60 166z"/>
<path style="fill:#66b0de; stroke:none;" d="M73 166L74 167L73 166z"/>
<path style="fill:#a6ceea; stroke:none;" d="M76 166L77 167L76 166M87 166L88 167L87 166M97 166L98 167L97 166z"/>
<path style="fill:#3a9ed7; stroke:none;" d="M106 166L107 167L106 166z"/>
<path style="fill:#a6ceea; stroke:none;" d="M124 166L125 167L124 166M127 166L128 167L127 166z"/>
<path style="fill:#3a9ed7; stroke:none;" d="M143 166L144 167L143 166z"/>
<path style="fill:#a6ceea; stroke:none;" d="M43 167L44 168L43 167z"/>
<path style="fill:#3a9ed7; stroke:none;" d="M45 167L46 168L45 167z"/>
<path style="fill:#66b0de; stroke:none;" d="M61 167L62 168L61 167M63 167L64 168L63 167z"/>
<path style="fill:#a6ceea; stroke:none;" d="M77 167L78 168L77 167M85 167L86 168L85 167z"/>
<path style="fill:#3a9ed7; stroke:none;" d="M87 167L88 168L87 167M95 167L96 168L95 167z"/>
<path style="fill:#66b0de; stroke:none;" d="M98 167L99 168L98 167z"/>
<path style="fill:#3a9ed7; stroke:none;" d="M105 167L106 168L105 167z"/>
<path style="fill:#a6ceea; stroke:none;" d="M108 167L109 168L108 167z"/>
<path style="fill:#3a9ed7; stroke:none;" d="M124 167L125 168L124 167M126 167L127 168L126 167z"/>
<path style="fill:#a6ceea; stroke:none;" d="M143 167L144 168L143 167M146 167L147 168L146 167z"/>
<path style="fill:#3a9ed7; stroke:none;" d="M41 168L42 169L41 168z"/>
<path style="fill:#a6ceea; stroke:none;" d="M45 168L46 169L45 168z"/>
<path style="fill:#3a9ed7; stroke:none;" d="M59 168L60 169L59 168z"/>
<path style="fill:#a6ceea; stroke:none;" d="M63 168L64 169L63 168z"/>
<path style="fill:#3a9ed7; stroke:none;" d="M78 168L79 169L78 168z"/>
<path style="fill:#66b0de; stroke:none;" d="M79 168L80 169L79 168z"/>
<path style="fill:#a6ceea; stroke:none;" d="M80 168L80 169L83 169L80 168z"/>
<path style="fill:#66b0de; stroke:none;" d="M83 168L84 169L83 168M87 168L88 169L87 168z"/>
<path style="fill:#a6ceea; stroke:none;" d="M95.3333 168.667L95.6667 169.333L95.3333 168.667z"/>
<path style="fill:#3a9ed7; stroke:none;" d="M99 168L100 169L99 168z"/>
<path style="fill:#a6ceea; stroke:none;" d="M100 168L100 169L103 169L100 168z"/>
<path style="fill:#66b0de; stroke:none;" d="M103 168L104 169L103 168M107 168L108 169L107 168z"/>
<path style="fill:#a6ceea; stroke:none;" d="M126 168L127 169L126 168z"/>
<path style="fill:#3a9ed7; stroke:none;" d="M146 168L147 169L146 168z"/>
<path style="fill:#66b0de; stroke:none;" d="M41 169L42 170L41 169z"/>
<path style="fill:#a6ceea; stroke:none;" d="M59 169L60 170L59 169z"/>
<path style="fill:#66b0de; stroke:none;" d="M76 169L77 170L76 169z"/>
<path style="fill:#3a9ed7; stroke:none;" d="M85 169L86 170L85 169z"/>
<path style="fill:#a6ceea; stroke:none;" d="M86 169L87 170L86 169z"/>
<path style="fill:#66b0de; stroke:none;" d="M98 169L99 170L98 169z"/>
<path style="fill:#a6ceea; stroke:none;" d="M106 169L107 170L106 169z"/>
<path style="fill:#66b0de; stroke:none;" d="M123 169L124 170L123 169M144 169L145 170L144 169z"/>
<path style="fill:#a6ceea; stroke:none;" d="M79 170L79 171L84 171L79 170M100 170L100 171L104 171L100 170z"/>
</svg>
